<svg width="28" height="29" viewBox="0 0 28 29" fill="none" xmlns="http://www.w3.org/2000/svg">
<rect y="0.863281" width="27.6798" height="27.6798" rx="5" fill="#C94661"/>
<path d="M14 7.6207C16.4047 7.6207 16.6895 7.63125 17.6352 7.67344C18.5141 7.71211 18.9887 7.85977 19.3051 7.98281C19.7234 8.14453 20.0258 8.34141 20.3387 8.6543C20.6551 8.9707 20.8484 9.26953 21.0102 9.68789C21.1332 10.0043 21.2809 10.4824 21.3195 11.3578C21.3617 12.307 21.3723 12.5918 21.3723 14.993C21.3723 17.3977 21.3617 17.6824 21.3195 18.6281C21.2809 19.507 21.1332 19.9816 21.0102 20.298C20.8484 20.7164 20.6516 21.0188 20.3387 21.3316C20.0223 21.648 19.7234 21.8414 19.3051 22.0031C18.9887 22.1262 18.5105 22.2738 17.6352 22.3125C16.6859 22.3547 16.4012 22.3652 14 22.3652C11.5953 22.3652 11.3105 22.3547 10.3648 22.3125C9.48594 22.2738 9.01133 22.1262 8.69492 22.0031C8.27656 21.8414 7.97422 21.6445 7.66133 21.3316C7.34492 21.0152 7.15156 20.7164 6.98984 20.298C6.8668 19.9816 6.71914 19.5035 6.68047 18.6281C6.63828 17.6789 6.62773 17.3941 6.62773 14.993C6.62773 12.5883 6.63828 12.3035 6.68047 11.3578C6.71914 10.4789 6.8668 10.0043 6.98984 9.68789C7.15156 9.26953 7.34844 8.96719 7.66133 8.6543C7.97773 8.33789 8.27656 8.14453 8.69492 7.98281C9.01133 7.85977 9.48945 7.71211 10.3648 7.67344C11.3105 7.63125 11.5953 7.6207 14 7.6207ZM14 6C11.5566 6 11.2508 6.01055 10.291 6.05273C9.33477 6.09492 8.67734 6.24961 8.10781 6.47109C7.51367 6.70312 7.01094 7.00898 6.51172 7.51172C6.00898 8.01094 5.70312 8.51367 5.47109 9.1043C5.24961 9.67734 5.09492 10.3313 5.05273 11.2875C5.01055 12.2508 5 12.5566 5 15C5 17.4434 5.01055 17.7492 5.05273 18.709C5.09492 19.6652 5.24961 20.3227 5.47109 20.8922C5.70312 21.4863 6.00898 21.9891 6.51172 22.4883C7.01094 22.9875 7.51367 23.2969 8.1043 23.5254C8.67734 23.7469 9.33125 23.9016 10.2875 23.9438C11.2473 23.9859 11.5531 23.9965 13.9965 23.9965C16.4398 23.9965 16.7457 23.9859 17.7055 23.9438C18.6617 23.9016 19.3191 23.7469 19.8887 23.5254C20.4793 23.2969 20.982 22.9875 21.4813 22.4883C21.9805 21.9891 22.2898 21.4863 22.5184 20.8957C22.7398 20.3227 22.8945 19.6688 22.9367 18.7125C22.9789 17.7527 22.9895 17.4469 22.9895 15.0035C22.9895 12.5602 22.9789 12.2543 22.9367 11.2945C22.8945 10.3383 22.7398 9.68086 22.5184 9.11133C22.2969 8.51367 21.991 8.01094 21.4883 7.51172C20.9891 7.0125 20.4863 6.70313 19.8957 6.47461C19.3227 6.25313 18.6688 6.09844 17.7125 6.05625C16.7492 6.01055 16.4434 6 14 6Z" fill="#EBEBEB"/>
<path d="M14 10.377C11.4477 10.377 9.37695 12.4477 9.37695 15C9.37695 17.5523 11.4477 19.623 14 19.623C16.5523 19.623 18.623 17.5523 18.623 15C18.623 12.4477 16.5523 10.377 14 10.377ZM14 17.9988C12.3441 17.9988 11.0012 16.6559 11.0012 15C11.0012 13.3441 12.3441 12.0012 14 12.0012C15.6559 12.0012 16.9988 13.3441 16.9988 15C16.9988 16.6559 15.6559 17.9988 14 17.9988Z" fill="#EBEBEB"/>
<path d="M19.8852 10.1945C19.8852 10.7922 19.4 11.2738 18.8059 11.2738C18.2082 11.2738 17.7266 10.7887 17.7266 10.1945C17.7266 9.59688 18.2117 9.11523 18.8059 9.11523C19.4 9.11523 19.8852 9.60039 19.8852 10.1945Z" fill="#EBEBEB"/>
</svg>
