<svg width="28" height="28" viewBox="0 0 28 28" fill="none" xmlns="http://www.w3.org/2000/svg">
<rect width="27.6798" height="27.6798" rx="5" fill="#C94661"/>
<g clip-path="url(#clip0_734:144)">
<path d="M21.6583 5H6.32817C5.59381 5 5 5.57976 5 6.29654V21.6899C5 22.4067 5.59381 22.99 6.32817 22.99H21.6583C22.3927 22.99 22.99 22.4067 22.99 21.6935V6.29654C22.99 5.57976 22.3927 5 21.6583 5ZM10.3373 20.3301H7.66688V11.7427H10.3373V20.3301ZM9.00207 10.5727C8.14474 10.5727 7.45254 9.88049 7.45254 9.02667C7.45254 8.17285 8.14474 7.48065 9.00207 7.48065C9.85589 7.48065 10.5481 8.17285 10.5481 9.02667C10.5481 9.87698 9.85589 10.5727 9.00207 10.5727ZM20.3301 20.3301H17.6633V16.1559C17.6633 15.1615 17.6457 13.879 16.2754 13.879C14.8875 13.879 14.6767 14.9648 14.6767 16.0856V20.3301H12.0133V11.7427H14.5712V12.9163H14.6064C14.9613 12.2417 15.8327 11.5284 17.1292 11.5284C19.8312 11.5284 20.3301 13.3063 20.3301 15.6183V20.3301V20.3301Z" fill="#EBEBEB"/>
</g>
<defs>
<clipPath id="clip0_734:144">
<rect width="17.99" height="17.99" fill="white" transform="translate(5 5)"/>
</clipPath>
</defs>
</svg>
